HIERARCHY
ROOT mixamorig:Hips
{
	OFFSET 0.000000 201.639420 0.000000
	CHANNELS 6 Xposition Yposition Zposition Xrotation Yrotation Zrotation
	JOINT mixamorig:Spine
	{
		OFFSET 0.006200 19.524994 -2.481800
		CHANNELS 3 Xrotation Yrotation Zrotation
		JOINT mixamorig:Spine1
		{
			OFFSET -0.000900 22.835007 -2.825400
			CHANNELS 3 Xrotation Yrotation Zrotation
			JOINT mixamorig:Spine2
			{
				OFFSET -0.020600 26.552490 -3.193300
				CHANNELS 3 Xrotation Yrotation Zrotation
				JOINT mixamorig:Neck
				{
					OFFSET -0.060000 30.701813 1.352200
					CHANNELS 3 Xrotation Yrotation Zrotation
					JOINT mixamorig:Head
					{
						OFFSET -0.087200 22.547607 3.670900
						CHANNELS 3 Xrotation Yrotation Zrotation
						JOINT mixamorig:HeadTop_End
						{
							OFFSET -0.830600 40.355194 7.893500
							CHANNELS 3 Xrotation Yrotation Zrotation
							End Site
							{
								OFFSET 0.000000 30.592346 0.000000
							}
						}
						JOINT mixamorig:RightEye
						{
							OFFSET -6.302100 18.118591 16.197100
							CHANNELS 3 Xrotation Yrotation Zrotation
							End Site
							{
								OFFSET 0.000000 30.592346 0.000000
							}
						}
						JOINT mixamorig:LeftEye
						{
							OFFSET 6.741500 18.382690 16.401899
							CHANNELS 3 Xrotation Yrotation Zrotation
							End Site
							{
								OFFSET 0.000000 30.592346 0.000000
							}
						}
					}
				}
				JOINT mixamorig:LeftShoulder
				{
					OFFSET 11.924900 18.230499 1.425400
					CHANNELS 3 Xrotation Yrotation Zrotation
					JOINT mixamorig:LeftArm
					{
						OFFSET 25.435989 -0.697632 -5.229300
						CHANNELS 3 Xrotation Yrotation Zrotation
						JOINT mixamorig:LeftForeArm
						{
							OFFSET 54.684776 0.000000 0.000000
							CHANNELS 3 Xrotation Yrotation Zrotation
							JOINT mixamorig:LeftHand
							{
								OFFSET 55.098175 0.000000 0.000000
								CHANNELS 3 Xrotation Yrotation Zrotation
								JOINT mixamorig:LeftHandMiddle1
								{
									OFFSET 23.369751 0.000000 0.000000
									CHANNELS 3 Xrotation Yrotation Zrotation
									JOINT mixamorig:LeftHandMiddle2
									{
										OFFSET 6.378677 0.000000 0.000000
										CHANNELS 3 Xrotation Yrotation Zrotation
										JOINT mixamorig:LeftHandMiddle3
										{
											OFFSET 6.148331 0.000000 0.000000
											CHANNELS 3 Xrotation Yrotation Zrotation
											JOINT mixamorig:LeftHandMiddle4
											{
												OFFSET 6.582504 0.000000 0.000000
												CHANNELS 3 Xrotation Yrotation Zrotation
												End Site
												{
													OFFSET -1.168900 6.395691 1.028606
												}
											}
										}
									}
								}
								JOINT mixamorig:LeftHandThumb1
								{
									OFFSET 7.235672 -3.848206 5.434273
									CHANNELS 3 Xrotation Yrotation Zrotation
									JOINT mixamorig:LeftHandThumb2
									{
										OFFSET 6.568451 -3.792297 3.792300
										CHANNELS 3 Xrotation Yrotation Zrotation
										JOINT mixamorig:LeftHandThumb3
										{
											OFFSET 6.063080 -3.500519 3.500518
											CHANNELS 3 Xrotation Yrotation Zrotation
											JOINT mixamorig:LeftHandThumb4
											{
												OFFSET 4.793182 -2.767334 2.767349
												CHANNELS 3 Xrotation Yrotation Zrotation
												End Site
												{
													OFFSET 0.101639 6.054260 1.275483
												}
											}
										}
									}
								}
								JOINT mixamorig:LeftHandIndex1
								{
									OFFSET 23.101074 -0.309540 4.992809
									CHANNELS 3 Xrotation Yrotation Zrotation
									JOINT mixamorig:LeftHandIndex2
									{
										OFFSET 6.226883 0.000000 0.000000
										CHANNELS 3 Xrotation Yrotation Zrotation
										JOINT mixamorig:LeftHandIndex3
										{
											OFFSET 6.094330 0.000000 0.000000
											CHANNELS 3 Xrotation Yrotation Zrotation
											JOINT mixamorig:LeftHandIndex4
											{
												OFFSET 5.482605 0.000000 0.000000
												CHANNELS 3 Xrotation Yrotation Zrotation
												End Site
												{
													OFFSET -1.427902 5.233032 0.797164
												}
											}
										}
									}
								}
								JOINT mixamorig:LeftHandRing1
								{
									OFFSET 22.299240 0.021149 -3.964172
									CHANNELS 3 Xrotation Yrotation Zrotation
									JOINT mixamorig:LeftHandRing2
									{
										OFFSET 6.321869 0.000000 0.000000
										CHANNELS 3 Xrotation Yrotation Zrotation
										JOINT mixamorig:LeftHandRing3
										{
											OFFSET 5.899796 0.000000 0.000000
											CHANNELS 3 Xrotation Yrotation Zrotation
											JOINT mixamorig:LeftHandRing4
											{
												OFFSET 6.517899 0.000000 0.000000
												CHANNELS 3 Xrotation Yrotation Zrotation
												End Site
												{
													OFFSET -1.637299 6.232208 0.980890
												}
											}
										}
									}
								}
								JOINT mixamorig:LeftHandPinky1
								{
									OFFSET 20.463791 -0.302338 -8.562233
									CHANNELS 3 Xrotation Yrotation Zrotation
									JOINT mixamorig:LeftHandPinky2
									{
										OFFSET 6.908646 0.000000 0.000000
										CHANNELS 3 Xrotation Yrotation Zrotation
										JOINT mixamorig:LeftHandPinky3
										{
											OFFSET 4.622849 0.000000 0.000000
											CHANNELS 3 Xrotation Yrotation Zrotation
											JOINT mixamorig:LeftHandPinky4
											{
												OFFSET 5.216080 0.000000 0.000000
												CHANNELS 3 Xrotation Yrotation Zrotation
												End Site
												{
													OFFSET -0.606308 5.116241 0.814926
												}
											}
										}
									}
								}
							}
						}
					}
				}
				JOINT mixamorig:RightShoulder
				{
					OFFSET -12.001300 18.284088 1.348900
					CHANNELS 3 Xrotation Yrotation Zrotation
					JOINT mixamorig:RightArm
					{
						OFFSET -25.308500 -0.751312 -5.164599
						CHANNELS 3 Xrotation Yrotation Zrotation
						JOINT mixamorig:RightForeArm
						{
							OFFSET -54.684429 0.000000 0.000000
							CHANNELS 3 Xrotation Yrotation Zrotation
							JOINT mixamorig:RightHand
							{
								OFFSET -55.150291 0.000000 0.000000
								CHANNELS 3 Xrotation Yrotation Zrotation
								JOINT mixamorig:RightHandMiddle1
								{
									OFFSET -23.317566 0.000000 0.000000
									CHANNELS 3 Xrotation Yrotation Zrotation
									JOINT mixamorig:RightHandMiddle2
									{
										OFFSET -6.378403 0.000000 0.000000
										CHANNELS 3 Xrotation Yrotation Zrotation
										JOINT mixamorig:RightHandMiddle3
										{
											OFFSET -6.148193 0.000000 0.000000
											CHANNELS 3 Xrotation Yrotation Zrotation
											JOINT mixamorig:RightHandMiddle4
											{
												OFFSET -6.583389 0.000000 0.000000
												CHANNELS 3 Xrotation Yrotation Zrotation
												End Site
												{
													OFFSET 1.171692 6.395905 1.029786
												}
											}
										}
									}
								}
								JOINT mixamorig:RightHandThumb1
								{
									OFFSET -7.190521 -3.860474 5.435846
									CHANNELS 3 Xrotation Yrotation Zrotation
									JOINT mixamorig:RightHandThumb2
									{
										OFFSET -6.567429 -3.791718 3.791708
										CHANNELS 3 Xrotation Yrotation Zrotation
										JOINT mixamorig:RightHandThumb3
										{
											OFFSET -6.062469 -3.500153 3.500166
											CHANNELS 3 Xrotation Yrotation Zrotation
											JOINT mixamorig:RightHandThumb4
											{
												OFFSET -4.792618 -2.767029 2.767022
												CHANNELS 3 Xrotation Yrotation Zrotation
												End Site
												{
													OFFSET -0.100327 6.053253 1.276754
												}
											}
										}
									}
								}
								JOINT mixamorig:RightHandIndex1
								{
									OFFSET -23.048981 -0.310791 4.992554
									CHANNELS 3 Xrotation Yrotation Zrotation
									JOINT mixamorig:RightHandIndex2
									{
										OFFSET -6.227539 0.000000 0.000000
										CHANNELS 3 Xrotation Yrotation Zrotation
										JOINT mixamorig:RightHandIndex3
										{
											OFFSET -6.095047 0.000000 0.000000
											CHANNELS 3 Xrotation Yrotation Zrotation
											JOINT mixamorig:RightHandIndex4
											{
												OFFSET -5.484772 0.000000 0.000000
												CHANNELS 3 Xrotation Yrotation Zrotation
												End Site
												{
													OFFSET 1.420593 5.237305 0.797056
												}
											}
										}
									}
								}
								JOINT mixamorig:RightHandRing1
								{
									OFFSET -22.246323 0.020569 -3.963762
									CHANNELS 3 Xrotation Yrotation Zrotation
									JOINT mixamorig:RightHandRing2
									{
										OFFSET -6.322128 0.000000 0.000000
										CHANNELS 3 Xrotation Yrotation Zrotation
										JOINT mixamorig:RightHandRing3
										{
											OFFSET -5.900024 0.000000 0.000000
											CHANNELS 3 Xrotation Yrotation Zrotation
											JOINT mixamorig:RightHandRing4
											{
												OFFSET -6.518356 0.000000 0.000000
												CHANNELS 3 Xrotation Yrotation Zrotation
												End Site
												{
													OFFSET 1.636398 6.232697 0.982186
												}
											}
										}
									}
								}
								JOINT mixamorig:RightHandPinky1
								{
									OFFSET -20.411011 -0.303314 -8.561701
									CHANNELS 3 Xrotation Yrotation Zrotation
									JOINT mixamorig:RightHandPinky2
									{
										OFFSET -6.907349 0.000000 0.000000
										CHANNELS 3 Xrotation Yrotation Zrotation
										JOINT mixamorig:RightHandPinky3
										{
											OFFSET -4.623840 0.000000 0.000000
											CHANNELS 3 Xrotation Yrotation Zrotation
											JOINT mixamorig:RightHandPinky4
											{
												OFFSET -5.218353 0.000000 0.000000
												CHANNELS 3 Xrotation Yrotation Zrotation
												End Site
												{
													OFFSET 0.602097 5.118835 0.816273
												}
											}
										}
									}
								}
							}
						}
					}
				}
			}
		}
	}
	JOINT mixamorig:LeftUpLeg
	{
		OFFSET 18.168400 -13.561905 -0.039000
		CHANNELS 3 Xrotation Yrotation Zrotation
		JOINT mixamorig:LeftLeg
		{
			OFFSET 0.577358 -80.825211 -3.695000
			CHANNELS 3 Xrotation Yrotation Zrotation
			JOINT mixamorig:LeftFoot
			{
				OFFSET -0.577356 -83.370262 -6.520700
				CHANNELS 3 Xrotation Yrotation Zrotation
				JOINT mixamorig:LeftToeBase
				{
					OFFSET 0.750401 -20.798306 25.135401
					CHANNELS 3 Xrotation Yrotation Zrotation
					JOINT mixamorig:LeftToe_End
					{
						OFFSET -0.000500 0.001200 19.917799
						CHANNELS 3 Xrotation Yrotation Zrotation
						End Site
						{
							OFFSET 0.000000 19.917805 0.000000
						}
					}
				}
			}
		}
	}
	JOINT mixamorig:RightUpLeg
	{
		OFFSET -18.162500 -13.585098 -0.041000
		CHANNELS 3 Xrotation Yrotation Zrotation
		JOINT mixamorig:RightLeg
		{
			OFFSET -0.595024 -80.945297 -3.631900
			CHANNELS 3 Xrotation Yrotation Zrotation
			JOINT mixamorig:RightFoot
			{
				OFFSET 0.595024 -83.218193 -6.561200
				CHANNELS 3 Xrotation Yrotation Zrotation
				JOINT mixamorig:RightToeBase
				{
					OFFSET -0.753601 -20.807106 25.115000
					CHANNELS 3 Xrotation Yrotation Zrotation
					JOINT mixamorig:RightToe_End
					{
						OFFSET 0.000299 0.001700 19.918200
						CHANNELS 3 Xrotation Yrotation Zrotation
						End Site
						{
							OFFSET 0.000000 19.918203 0.000000
						}
					}
				}
			}
		}
	}
}
MOTION
Frames: 4
Frame Time: 0.033333
0.009711 199.395645 0.255888 1.940135 1.922115 0.150140 6.167556 -1.298427 -0.264475 2.498167 -2.419469 1.232352 2.471490 -2.375263 1.342051 -0.476781 2.129171 -0.237484 -3.192897 4.531015 -1.879431 0.000000 -0.000000 -0.000000 0.000000 -0.000000 -0.000000 0.000000 -0.000000 -0.000000 0.352376 -9.169222 -14.380743 9.011944 -24.442293 -57.554610 0.000007 -11.061363 -0.000005 3.271999 3.566769 -10.594339 0.435648 4.488119 -26.650148 0.126197 1.210698 -11.901608 0.171725 1.409430 -13.892102 -0.000003 0.000001 0.000004 5.261614 3.579029 10.849096 6.474836 8.363746 6.367622 2.008053 -7.323734 21.363843 0.000001 -0.000001 0.000004 -2.230638 -4.145223 -17.701282 0.202679 1.529148 -15.099410 0.202676 1.529120 -15.099468 0.000001 0.000002 -0.000003 1.633035 6.796796 -27.449021 0.330728 1.942286 -19.324989 0.401445 2.133113 -21.313482 -0.000000 0.000001 0.000001 3.038351 8.521849 -34.072723 0.278520 1.786563 -17.720758 0.277952 1.784767 -17.702174 0.000000 -0.000001 0.000000 0.552466 4.135210 15.717230 2.585507 28.440237 49.448715 0.000004 23.198761 0.000008 -1.370119 0.937419 5.904103 -1.110203 -0.337425 22.215223 0.858143 -2.695809 35.310097 0.296097 -1.635665 20.519978 0.000004 0.000000 -0.000000 12.604234 -3.092191 -3.818530 4.957581 -19.016121 -8.086588 -16.136701 -1.567494 -12.128531 -0.000001 -0.000001 0.000004 -2.600910 3.990681 20.792134 0.395178 -1.879126 23.750098 0.077973 -0.849545 10.488005 0.000001 0.000001 -0.000000 -0.265614 -2.592798 24.353760 1.505975 -3.430907 47.387470 0.374051 -1.830400 23.097599 0.000001 -0.000001 -0.000003 -0.048035 -3.330767 29.341198 0.569536 -2.233585 28.606381 0.178101 -1.276921 15.880022 0.000002 0.000000 0.000001 -32.327845 8.943628 5.210116 57.464396 -4.602337 -0.538087 3.514865 0.009235 -1.859081 -8.204082 -0.000002 0.000001 0.000000 0.000001 0.000000 -14.629128 -7.322496 1.166327 19.190612 2.884016 -3.579878 -7.347691 0.004207 0.272610 -4.971786 -0.000001 0.000001 -0.000000 0.000000 0.000000 
0.270654 199.245575 0.374804 1.468063 1.416735 0.672561 6.689925 -1.030704 -0.426365 2.544930 -2.281608 1.169913 2.519023 -2.240461 1.271109 -0.496104 2.032945 -0.184284 -3.529704 4.205431 -1.490857 -0.000001 0.000000 0.000000 -0.000001 0.000000 0.000000 -0.000001 0.000000 0.000000 0.351100 -8.771542 -14.525273 7.953857 -24.138689 -57.854072 0.000001 -12.567718 -0.000015 2.842269 2.914118 -10.186208 0.434975 4.486420 -26.632243 0.126084 1.210115 -11.895770 0.171283 1.407618 -13.874012 0.000001 -0.000000 0.000003 5.261617 3.579035 10.849119 6.474842 8.363754 6.367617 2.008186 -7.324061 21.367832 -0.000002 -0.000000 0.000000 -2.228632 -4.147725 -17.683650 0.202419 1.528152 -15.089508 0.202190 1.527375 -15.081577 -0.000003 -0.000002 -0.000002 1.631642 6.795467 -27.430996 0.330295 1.941059 -19.312326 0.400776 2.131437 -21.295592 -0.000002 -0.000000 0.000001 3.036399 8.520962 -34.054644 0.278176 1.785439 -17.709111 0.277395 1.783016 -17.684325 -0.000001 -0.000001 -0.000001 0.547326 4.460557 15.840706 1.926464 27.066272 49.796532 -0.000005 23.433491 0.000003 -0.082908 0.158656 6.246178 -1.109498 -0.335316 22.194479 0.857170 -2.694419 35.289122 0.295495 -1.634065 20.499112 0.000000 -0.000000 -0.000001 12.604247 -3.092189 -3.818536 4.950986 -19.009147 -8.093720 -16.138806 -1.558564 -12.136853 -0.000002 0.000003 0.000005 -2.598643 3.993325 20.771553 0.394673 -1.877962 23.734496 0.077738 -0.848223 10.471295 0.000001 0.000000 0.000001 -0.265720 -2.590987 24.332930 1.504733 -3.429749 47.366491 0.373395 -1.828837 23.076732 0.000002 0.000004 -0.000000 -0.048431 -3.329027 29.320363 0.569035 -2.232692 28.593588 0.177813 -1.275903 15.867255 -0.000002 0.000002 0.000001 -33.502208 8.684084 5.879345 56.728187 -3.516412 -1.988496 3.922202 0.026539 -3.225205 -7.376553 0.000005 -0.000005 -0.000002 0.000000 0.000000 -14.819779 -7.479482 0.376890 20.442329 3.658179 -3.498643 -8.021052 0.018800 0.221750 -4.985614 0.000000 -0.000001 0.000000 0.000000 -0.000000 
0.643047 199.401062 0.760385 1.034015 0.617982 1.287515 7.084251 -0.737642 -0.691541 2.527022 -2.129076 1.101473 2.501997 -2.090357 1.193877 -0.463762 1.946727 -0.141715 -3.666181 4.024879 -1.228760 0.000000 -0.000000 0.000000 0.000000 -0.000000 0.000000 0.000000 -0.000000 0.000000 0.353317 -8.353053 -14.664379 6.810993 -23.712439 -58.204700 0.000008 -14.044455 0.000001 2.800805 2.134706 -9.826713 0.433051 4.481472 -26.580702 0.125617 1.207878 -11.873275 0.169986 1.402435 -13.821900 0.000001 0.000001 0.000003 5.256352 3.567945 10.858242 6.464969 8.357612 6.378403 2.008447 -7.337553 21.379855 0.000000 0.000000 -0.000002 -2.222874 -4.154971 -17.632927 0.201659 1.525329 -15.060951 0.200825 1.522273 -15.030104 0.000002 -0.000004 -0.000004 1.627636 6.791608 -27.379201 0.329058 1.937513 -19.275762 0.398859 2.126522 -21.244130 0.000000 -0.000001 0.000001 3.030801 8.518353 -34.002598 0.277123 1.782160 -17.675594 0.275792 1.778015 -17.632868 -0.000002 -0.000002 -0.000001 0.526194 4.879992 15.920910 1.431241 25.710937 50.201242 0.000001 23.560656 0.000011 1.185745 -0.607375 6.607661 -1.107464 -0.329225 22.134703 0.854333 -2.690412 35.228692 0.293790 -1.629477 20.438991 0.000001 -0.000001 0.000000 12.604230 -3.092180 -3.818522 4.925538 -18.982212 -8.121310 -16.145795 -1.527854 -12.159664 -0.000004 0.000001 0.000001 -2.592139 4.000912 20.712195 0.393198 -1.874613 23.689567 0.077014 -0.844361 10.423221 0.000002 -0.000001 0.000002 -0.266047 -2.585768 24.272911 1.501127 -3.426438 47.306215 0.371474 -1.824344 23.016624 0.000002 0.000002 -0.000003 -0.049520 -3.324046 29.260254 0.567608 -2.230048 28.556748 0.176998 -1.273025 15.830481 -0.000001 -0.000000 -0.000000 -33.853826 8.910397 5.942878 54.740705 -2.545428 -3.047939 2.367765 0.057185 -2.990923 -7.231107 0.000007 0.000002 0.000000 0.000001 0.000001 -14.466272 -7.617398 -0.473373 20.639657 4.668543 -3.479872 -8.204468 0.028670 0.261586 -4.811237 0.000001 -0.000000 0.000000 -0.000000 -0.000000 
1.149069 199.566513 1.459305 0.636399 -0.252200 1.913029 7.336758 -0.587304 -0.967431 2.459570 -2.010557 1.031380 2.435677 -1.971631 1.121459 -0.399797 1.878732 -0.111586 -3.500940 4.019989 -1.116326 0.000000 0.000000 -0.000000 0.000000 0.000000 -0.000000 0.000000 0.000000 -0.000000 0.363033 -7.952936 -14.742545 5.723493 -23.183563 -58.527563 -0.000012 -15.516965 -0.000004 2.996422 1.252132 -9.492508 0.430020 4.473627 -26.498706 0.124855 1.204283 -11.837473 0.167967 1.394193 -13.739013 0.000004 0.000001 0.000001 5.241789 3.548781 10.875015 6.447197 8.341289 6.397123 2.008717 -7.359030 21.399003 0.000003 -0.000000 -0.000000 -2.213700 -4.166474 -17.552217 0.200452 1.520832 -15.015520 0.198665 1.514175 -14.948240 -0.000006 -0.000001 -0.000002 1.621247 6.785456 -27.296762 0.327089 1.931905 -19.217574 0.395825 2.118692 -21.162282 -0.000004 -0.000003 0.000000 3.021893 8.514227 -33.919809 0.275467 1.776966 -17.622259 0.273263 1.770027 -17.551032 0.000000 -0.000003 0.000002 0.499231 5.326799 15.968378 0.974440 24.141843 50.691588 0.000008 23.896382 0.000005 2.619563 -1.504628 6.996639 -1.104200 -0.319548 22.039632 0.849824 -2.684020 35.132587 0.291075 -1.622188 20.343380 0.000000 0.000000 0.000001 12.604242 -3.092185 -3.818512 4.888590 -18.937989 -8.165730 -16.151939 -1.477919 -12.196621 -0.000005 -0.000000 0.000001 -2.581788 4.012968 20.617865 0.390866 -1.869287 23.618125 0.075892 -0.838236 10.346739 -0.000001 -0.000001 -0.000001 -0.266551 -2.577481 24.177459 1.495400 -3.421144 47.210278 0.368436 -1.817174 22.921008 0.000001 0.000003 0.000001 -0.051265 -3.316107 29.164706 0.565330 -2.225862 28.498145 0.175712 -1.268458 15.771972 0.000001 0.000000 0.000001 -33.566306 9.317904 5.517460 51.577719 -1.885180 -3.787391 0.366075 0.056079 -2.286779 -6.964220 -0.000001 0.000001 0.000000 -0.000000 0.000000 -14.055901 -7.797599 -1.431453 20.812862 5.869051 -3.404543 -8.474812 0.036216 0.291406 -4.680274 0.000001 0.000000 -0.000000 -0.000000 -0.000000 
